<?xml version="1.0" standalone="no"?>
<!DOCTYPE svg PUBLIC "-//W3C//DTD SVG 20010904//EN"
 "http://www.w3.org/TR/2001/REC-SVG-20010904/DTD/svg10.dtd">
<svg version="1.0" xmlns="http://www.w3.org/2000/svg"
 width="700.000000pt" height="700.000000pt" viewBox="0 0 700.000000 700.000000"
 preserveAspectRatio="xMidYMid meet">
<metadata>
Created by potrace 1.14, written by Peter Selinger 2001-2017
</metadata>
<g transform="translate(0.000000,700.000000) scale(0.100000,-0.100000)"
fill="#000000" stroke="none">
<path d="M179 6819 c0 -8 -2 -1503 -2 -3322 -1 -2196 1 -3311 8 -3316 13 -9
6622 -7 6632 2 8 9 11 6636 3 6638 -28 5 -6595 2 -6603 -3 -6 -4 -17 -2 -24 4
-10 8 -13 7 -14 -3z m2038 -344 c572 0 949 3 946 9 -4 5 0 6 8 0 20 -13 1919
-12 1911 1 -3 6 0 6 9 -1 9 -7 227 -10 689 -9 371 1 680 0 685 -2 6 -2 10
-182 10 -513 -1 -345 3 -510 10 -510 7 0 7 -3 -1 -8 -14 -10 -14 -2544 0
-2554 7 -5 7 -8 1 -8 -15 0 -15 -1902 -1 -1912 8 -5 8 -8 1 -8 -13 0 -14 -379
-1 -399 6 -10 6 -12 -3 -7 -8 6 -11 2 -9 -10 3 -18 -6 -19 -119 -18 -78 0
-120 -3 -116 -9 4 -6 1 -7 -8 -1 -18 11 -198 13 -205 2 -3 -5 -11 -5 -17 -1
-18 11 -417 11 -410 -1 4 -5 1 -6 -8 0 -18 11 -198 13 -205 2 -3 -5 -11 -5
-17 -1 -18 11 -417 11 -410 -1 4 -5 1 -6 -8 0 -18 11 -198 13 -205 2 -3 -5
-11 -5 -17 -1 -18 11 -417 11 -410 -1 4 -5 1 -6 -8 0 -18 11 -198 13 -205 2
-3 -5 -11 -5 -17 -1 -19 12 -1247 10 -1247 -2 0 -7 -3 -7 -8 1 -9 13 -1723 14
-1715 0 4 -5 1 -6 -8 0 -18 12 -191 13 -206 2 -6 -5 -13 -5 -16 -1 -3 5 -84 8
-181 8 -97 0 -176 2 -177 5 -1 3 -2 23 -3 45 -1 22 -6 46 -10 54 -6 8 -5 12 0
8 12 -7 12 1893 0 1912 -6 8 -5 12 0 8 11 -6 12 1272 1 1290 -4 6 -4 14 1 17
11 6 9 587 -2 605 -6 8 -5 12 0 8 6 -3 9 392 9 994 0 660 3 1000 10 1002 5 2
168 3 362 2 211 0 349 3 346 9 -4 5 0 6 8 0 8 -5 430 -9 966 -9z"/>
<path d="M3595 4788 c-50 -38 -99 -76 -110 -86 -11 -9 -54 -44 -95 -77 -63
-50 -238 -195 -277 -230 -53 -48 -132 -117 -149 -132 -11 -10 -56 -50 -100
-90 -102 -92 -148 -132 -150 -130 -4 5 -304 558 -329 605 -16 30 -34 56 -40
58 -7 3 -30 -5 -51 -17 -22 -12 -73 -40 -114 -62 -96 -51 -114 -64 -102 -71 5
-3 22 -29 37 -58 26 -50 47 -89 115 -213 162 -294 250 -457 250 -464 0 -4 -33
-39 -73 -78 -40 -39 -118 -120 -173 -179 -54 -59 -106 -115 -114 -124 -8 -8
-40 -45 -70 -80 -30 -36 -57 -67 -60 -70 -9 -8 -123 -151 -140 -176 -56 -81
-130 -194 -146 -224 -10 -19 -22 -36 -26 -38 -5 -2 -8 -8 -8 -13 0 -6 -10 -31
-22 -57 -52 -115 -70 -226 -47 -301 16 -53 71 -117 118 -137 185 -79 606 81
1125 429 l130 86 12 -27 c26 -56 93 -200 129 -277 99 -212 165 -370 161 -382
-3 -7 -1 -12 5 -10 5 1 24 -32 40 -73 17 -41 37 -88 44 -105 7 -16 34 -84 60
-150 26 -66 53 -133 60 -150 7 -16 25 -64 40 -105 15 -41 31 -78 35 -83 6 -7
46 7 145 48 17 7 53 21 80 31 54 19 68 32 56 49 -4 5 -13 24 -19 40 -16 45
-112 287 -122 310 -5 11 -43 101 -85 200 -91 214 -131 305 -196 444 -27 57
-49 105 -49 107 0 1 -31 68 -70 148 -38 80 -70 152 -70 159 0 13 91 97 106 97
3 0 14 8 23 18 9 10 97 83 196 163 209 168 401 324 430 347 43 36 314 251 390
310 44 34 85 65 90 70 18 14 230 168 255 185 103 70 187 124 200 130 8 4 42
24 75 44 33 21 77 47 98 58 20 11 37 24 37 29 0 5 -18 40 -40 78 -22 39 -40
72 -40 74 0 3 -54 94 -66 112 -4 7 -498 -300 -554 -345 -8 -7 -74 -56 -146
-110 -72 -54 -148 -112 -170 -130 -21 -18 -84 -68 -139 -113 -131 -106 -118
-95 -215 -175 -47 -39 -91 -74 -98 -80 -7 -5 -21 -17 -30 -26 -9 -8 -46 -39
-82 -68 -79 -65 -122 -101 -221 -183 -102 -85 -165 -137 -208 -171 l-35 -28
-109 217 -109 217 74 69 c40 38 96 90 123 115 28 25 75 68 105 97 52 48 168
150 256 224 36 31 357 288 413 331 l24 19 -46 65 c-25 35 -44 67 -42 71 3 3 2
4 -1 1 -4 -2 -26 22 -48 54 l-41 58 -90 -69z m-855 -1463 c50 -99 90 -185 90
-191 0 -10 -72 -64 -85 -64 -3 0 -14 -8 -25 -17 -16 -15 -191 -124 -255 -159
-183 -100 -421 -206 -509 -228 l-28 -7 32 58 c108 191 289 415 584 720 63 65
92 89 98 80 5 -6 49 -93 98 -192z"/>
</g>
</svg>
